<?xml version="1.0" encoding="utf-8"?>
<!-- Generator: Adobe Illustrator 19.0.0, SVG Export Plug-In . SVG Version: 6.00 Build 0)  -->
<svg version="1.1" id="Layer_1" xmlns="http://www.w3.org/2000/svg" xmlns:xlink="http://www.w3.org/1999/xlink" x="0px" y="0px"
	 viewBox="0 0 50 50" enable-background="new 0 0 50 50" xml:space="preserve">
<g id="XMLID_291_">
	<g id="XMLID_134_">
		<path id="XMLID_40_" fill="#1D1D1B" d="M42.55,34.59c2.42,2.65,2.23,6.76-0.42,9.18c-1.25,1.14-2.81,1.7-4.38,1.7
			c-1.76,0-3.52-0.71-4.8-2.12L25,34.64l-7.95,8.71c-1.28,1.41-3.04,2.12-4.8,2.12c-1.57,0-3.13-0.56-4.38-1.7
			c-2.65-2.42-2.84-6.53-0.42-9.18L16.2,25l-8.75-9.59c-2.42-2.65-2.23-6.76,0.42-9.18S14.63,4,17.05,6.65L25,15.36l7.95-8.71
			c2.42-2.65,6.53-2.84,9.18-0.42s2.84,6.53,0.42,9.18L33.8,25L42.55,34.59z"/>
	</g>
</g>
</svg>
