<?xml version="1.0" encoding="utf-8"?>
<!-- Generator: Adobe Illustrator 19.0.0, SVG Export Plug-In . SVG Version: 6.00 Build 0)  -->
<svg version="1.1" id="Layer_1" xmlns="http://www.w3.org/2000/svg" xmlns:xlink="http://www.w3.org/1999/xlink" x="0px" y="0px"
	 viewBox="0 0 83 83" enable-background="new 0 0 83 83" xml:space="preserve">
<g id="XMLID_32_" display="none">
	<path id="XMLID_33_" display="inline" fill="#1D1D1B" d="M63.05,29.915h-2.8v-7.81c0-9.81-8.41-17.8-18.75-17.8
		s-18.75,7.99-18.75,17.8v7.81h-2.8c-4.67,0-8.45,3.78-8.45,8.44v31.9c0,4.66,3.78,8.44,8.45,8.44h43.1c4.67,0,8.45-3.78,8.45-8.44
		v-31.9C71.5,33.695,67.72,29.915,63.05,29.915z M45.35,54.195v6.26c0,2.12-1.73,3.85-3.85,3.85s-3.85-1.73-3.85-3.85v-6.26
		c-1.13-1.04-1.84-2.54-1.84-4.2c0-3.14,2.55-5.69,5.69-5.69s5.69,2.55,5.69,5.69C47.19,51.655,46.48,53.155,45.35,54.195z
		 M54.25,29.915h-25.5v-7.81c0-6.5,5.72-11.8,12.75-11.8s12.75,5.3,12.75,11.8V29.915z"/>
</g>
<g id="XMLID_3_">
	<path id="XMLID_51_" fill="#1D1D1B" d="M80.47,13.64c-0.94-1.21-2.34-1.9-3.84-1.9h-6.2C70.42,11,70.4,10.25,70.37,9.5
		c-0.1-2.9-2.45-5.2-5.32-5.2h-47.1c-2.87,0-5.22,2.3-5.32,5.2c-0.03,0.75-0.05,1.5-0.06,2.24h-6.2c-1.5,0-2.9,0.69-3.84,1.9
		c-0.96,1.23-1.29,2.81-0.9,4.32c0.75,2.93,2.46,5.88,4.96,8.52c4.99,5.29,9.26,6.05,13.06,6.14c7.58,6.84,16.7,6.87,16.7,19.73
		c0,8.87-7.75,17.55-12.97,22.4c-1.53,1.42-0.53,3.95,1.55,3.95h33.14c2.08,0,3.08-2.53,1.55-3.95
		c-5.22-4.85-12.97-13.53-12.97-22.4c0-12.85,9.11-12.89,16.69-19.73h0.01c3.8-0.09,8.07-0.85,13.06-6.14
		c2.5-2.64,4.21-5.59,4.96-8.52C81.76,16.45,81.43,14.87,80.47,13.64z M10.22,23.05c-2.4-2.54-3.36-4.82-3.73-6.31h6.15
		c0.19,3.47,0.8,6.82,2.39,9.95C13.55,26.03,11.99,24.92,10.22,23.05z M45.2,23.53l0.87,5.07l-4.57-2.4l-4.57,2.4l0.87-5.07
		l-3.7-3.6l5.13-0.75l2.27-4.63l2.27,4.63l5.13,0.75L45.2,23.53z M72.78,23.05c-1.77,1.87-3.33,2.98-4.81,3.64
		c1.59-3.13,2.2-6.48,2.39-9.95h6.16C76.14,18.21,75.19,20.49,72.78,23.05z"/>
</g>
</svg>
