<?xml version="1.0" encoding="utf-8"?>
<!-- Generator: Adobe Illustrator 19.0.0, SVG Export Plug-In . SVG Version: 6.00 Build 0)  -->
<svg version="1.1" id="Layer_1" xmlns="http://www.w3.org/2000/svg" xmlns:xlink="http://www.w3.org/1999/xlink" x="0px" y="0px"
	 viewBox="0 0 82.667 82.667" enable-background="new 0 0 82.667 82.667" xml:space="preserve">
<g id="XMLID_6_">
	<path id="XMLID_16_" fill="#1D1D1B" d="M62.883,29.443h-2.8v-7.81c0-9.81-8.41-17.8-18.75-17.8s-18.75,7.99-18.75,17.8v7.81h-2.8
		c-4.67,0-8.45,3.78-8.45,8.44v31.9c0,4.66,3.78,8.44,8.45,8.44h43.1c4.67,0,8.45-3.78,8.45-8.44v-31.9
		C71.333,33.223,67.553,29.443,62.883,29.443z M45.183,53.723v6.26c0,2.12-1.73,3.85-3.85,3.85s-3.85-1.73-3.85-3.85v-6.26
		c-1.13-1.04-1.84-2.54-1.84-4.2c0-3.14,2.55-5.69,5.69-5.69s5.69,2.55,5.69,5.69C47.023,51.183,46.313,52.683,45.183,53.723z
		 M54.083,29.443h-25.5v-7.81c0-6.5,5.72-11.8,12.75-11.8s12.75,5.3,12.75,11.8V29.443z"/>
</g>
</svg>
