<?xml version="1.0" encoding="utf-8"?>
<!-- Generator: Adobe Illustrator 19.0.0, SVG Export Plug-In . SVG Version: 6.00 Build 0)  -->
<svg version="1.1" id="Layer_1" xmlns="http://www.w3.org/2000/svg" xmlns:xlink="http://www.w3.org/1999/xlink" x="0px" y="0px"
	 viewBox="0 0 50 50" enable-background="new 0 0 50 50" xml:space="preserve">
<g id="XMLID_2_">
	<path id="XMLID_1_" fill="#1D1D1B" d="M39.222,13.52L39.222,13.52c0,1.657-1.343,3-3,3H13.778c-1.657,0-3-1.343-3-3v0
		c0-1.657,1.343-3,3-3h22.443C37.879,10.52,39.222,11.864,39.222,13.52z"/>
	<path id="XMLID_3_" fill="#1D1D1B" d="M39.222,25L39.222,25c0,1.657-1.343,3-3,3H13.778c-1.657,0-3-1.343-3-3v0
		c0-1.657,1.343-3,3-3h22.443C37.879,22,39.222,23.343,39.222,25z"/>
	<path id="XMLID_4_" fill="#1D1D1B" d="M39.222,36.48L39.222,36.48c0,1.657-1.343,3-3,3H13.778c-1.657,0-3-1.343-3-3v0
		c0-1.657,1.343-3,3-3h22.443C37.879,33.48,39.222,34.823,39.222,36.48z"/>
</g>
</svg>
