<?xml version="1.0" encoding="utf-8"?>
<!-- Generator: Adobe Illustrator 19.0.0, SVG Export Plug-In . SVG Version: 6.00 Build 0)  -->
<svg version="1.1" id="Layer_1" xmlns="http://www.w3.org/2000/svg" xmlns:xlink="http://www.w3.org/1999/xlink" x="0px" y="0px"
	 viewBox="0 0 595.28 496.087" enable-background="new 0 0 595.28 496.087" xml:space="preserve">
<g id="XMLID_24_">
	<g id="XMLID_27_">
		<g id="XMLID_28_">
			<path id="XMLID_54_" fill="#1D1D1B" d="M297.64,359.671c-44.112,0-80-35.888-80-80c0-17.103,5.537-33.842,15.657-47.532
				c-7.018-11.559-13.447-25.354-18.69-40.137c-7.499-21.134-11.788-42.056-12.079-58.913c-0.413-23.902,7.183-31.649,13.627-33.94
				c6.449-2.288,17.227-1.062,31.973,17.757c10.398,13.271,20.255,32.219,27.754,53.353c3.668,10.341,6.563,20.575,8.625,30.491
				c8.664-1.435,17.603-1.434,26.265,0c2.063-9.919,4.957-20.152,8.626-30.491c7.498-21.134,17.354-40.082,27.753-53.353
				c14.746-18.819,25.524-20.044,31.971-17.758c6.447,2.292,14.042,10.04,13.63,33.941c-0.291,16.856-4.581,37.779-12.08,58.913
				c-5.241,14.779-11.67,28.576-18.688,40.136c10.12,13.689,15.656,30.429,15.656,47.532
				C377.64,323.783,341.752,359.671,297.64,359.671z M221.232,108.292c-0.622,0-1.2,0.093-1.731,0.282
				c-8.854,3.147-11.417,35.138,4.531,80.086c5.456,15.381,12.22,29.594,19.563,41.103c1.158,1.816,1.024,4.17-0.334,5.842
				c-10.073,12.401-15.621,28.052-15.621,44.067c0,38.598,31.402,70,70,70s70-31.402,70-70c0-16.016-5.548-31.666-15.62-44.067
				c-1.358-1.672-1.493-4.025-0.334-5.841c7.343-11.511,14.107-25.724,19.562-41.103c0.001,0,0.001,0,0.001,0
				c15.947-44.947,13.385-76.938,4.527-80.087c-8.859-3.15-31.004,20.08-46.953,65.031c-4.107,11.576-7.197,22.989-9.183,33.921
				c-0.245,1.347-1.031,2.535-2.176,3.286c-1.146,0.75-2.545,0.999-3.88,0.69c-10.411-2.428-21.474-2.428-31.889,0
				c-1.334,0.31-2.736,0.061-3.88-0.69s-1.93-1.939-2.175-3.286c-1.985-10.929-5.075-22.342-9.183-33.921
				C251.464,131.345,230.992,108.292,221.232,108.292z"/>
		</g>
	</g>
	<g id="XMLID_26_">
		<path id="XMLID_53_" fill="#1D1D1B" d="M260.747,108.309c-0.848,0-1.708-0.216-2.495-0.671c-2.392-1.381-3.211-4.438-1.83-6.83
			l36.888-63.892c0.893-1.547,2.544-2.5,4.33-2.5c1.787,0,3.437,0.953,4.331,2.5l36.885,63.888c1.381,2.392,0.562,5.449-1.83,6.83
			c-2.393,1.38-5.45,0.561-6.83-1.83L297.64,49.416l-32.558,56.392C264.156,107.412,262.475,108.309,260.747,108.309z"/>
	</g>
	<g id="XMLID_25_">
		<path id="XMLID_29_" fill="#1D1D1B" d="M489,375.861H106.28c-1.786,0-3.437-0.953-4.33-2.5s-0.893-3.453,0-5l95.68-165.723
			c1.38-2.391,4.438-3.211,6.83-1.83c2.392,1.381,3.211,4.438,1.83,6.83l-91.35,158.223h365.4l-91.35-158.223
			c-1.381-2.392-0.562-5.449,1.83-6.83c2.392-1.382,5.45-0.561,6.83,1.83l95.68,165.723c0.894,1.547,0.894,3.453,0,5
			S490.786,375.861,489,375.861z"/>
	</g>
</g>
<path id="XMLID_30_" fill="#1D1D1B" d="M110.443,445.72c1.6-0.249,2.687-0.724,3.263-1.425c0.574-0.699,0.862-1.85,0.862-3.45
	l0.075-21.525c0-1.249-0.139-2.087-0.413-2.512c-0.275-0.424-0.763-0.638-1.462-0.638l-2.175,0.075l-0.45-0.525l0.6-3.825
	l7.95,0.075c1.65,0,3.487-0.037,5.513-0.112c2.025-0.075,3.437-0.137,4.237-0.188c5.55,0,9.487,1.113,11.813,3.337
	c2.325,2.226,3.487,4.938,3.487,8.138c0,2.35-0.701,4.55-2.1,6.6c-1.4,2.051-3.238,3.7-5.513,4.95
	c-2.276,1.25-4.713,1.875-7.313,1.875h-5.25l-0.075,3.899c0,1.4,0.075,2.438,0.225,3.112c0.15,0.676,0.424,1.139,0.825,1.388
	c0.399,0.251,1.024,0.375,1.875,0.375l2.625-0.075l0.225,0.375l-0.6,4.051c-0.65,0-1.8-0.026-3.45-0.075
	c-1.65-0.051-3.225-0.075-4.725-0.075c-1.301,0-3.188,0.063-5.662,0.188c-2.475,0.124-4.113,0.212-4.913,0.263L110.443,445.72z
	 M134.143,423.97c0-2.299-0.688-3.986-2.063-5.063c-1.376-1.074-3.538-1.612-6.488-1.612c-0.551,0-0.9,0.063-1.05,0.188
	c-0.15,0.125-0.251,0.438-0.3,0.938c-0.3,4.95-0.476,9.101-0.525,12.45l5.175,0.675C132.392,430.746,134.143,428.221,134.143,423.97
	z"/>
<path id="XMLID_33_" fill="#1D1D1B" d="M170.217,445.045l-5.025-9.825h-4.2l-0.075,5.775c0,1.35,0.1,2.313,0.3,2.888
	c0.199,0.575,0.587,0.963,1.163,1.162c0.574,0.2,1.562,0.326,2.962,0.375l0.3,0.375l-0.675,3.975c-0.8-0.05-2.212-0.088-4.238-0.112
	c-2.025-0.025-3.787-0.037-5.287-0.037c-1.601,0-3.251,0.049-4.95,0.149c-1.7,0.1-2.801,0.175-3.3,0.226l0.525-4.351
	c1.699-0.199,2.837-0.637,3.413-1.313c0.574-0.675,0.862-1.837,0.862-3.487l0.075-21.975c0-1.05-0.139-1.763-0.413-2.138
	c-0.275-0.375-0.763-0.563-1.462-0.563l-2.175,0.075l-0.45-0.525l0.6-3.825l7.95,0.075c1.75,0,3.625-0.037,5.625-0.112
	c1.999-0.075,3.399-0.137,4.2-0.188c4.95,0,8.725,0.875,11.325,2.625c2.599,1.751,3.9,4.301,3.9,7.65c0,2.3-0.701,4.401-2.1,6.3
	c-1.4,1.9-3.426,3.5-6.075,4.8l5.025,7.725c1.2,1.751,2.325,3.026,3.375,3.825c1.05,0.801,2.175,1.2,3.375,1.2l0.525,0.675
	l-0.525,3.375l-7.725,0.601C174.142,450.445,171.867,448.645,170.217,445.045z M171.567,423.07c0-2-0.726-3.488-2.175-4.463
	c-1.451-0.975-3.675-1.462-6.675-1.462c-0.401,0-0.664,0.088-0.788,0.262c-0.125,0.176-0.213,0.538-0.263,1.088
	c-0.3,4.101-0.45,7.725-0.45,10.875l5.325,0.6C169.892,428.77,171.567,426.471,171.567,423.07z"/>
<path id="XMLID_36_" fill="#1D1D1B" d="M192.304,445.308c-3.176-3.274-4.763-7.812-4.763-13.612c0-4.15,0.825-7.763,2.475-10.838
	s4.012-5.438,7.087-7.087s6.662-2.475,10.763-2.475c5.7,0,10.125,1.612,13.275,4.837s4.725,7.738,4.725,13.538
	c0,4.15-0.838,7.775-2.513,10.875c-1.676,3.101-4.05,5.488-7.125,7.162c-3.075,1.676-6.663,2.513-10.763,2.513
	C199.866,450.22,195.479,448.583,192.304,445.308z M213.191,441.595c1.45-1.999,2.175-4.899,2.175-8.7
	c0-5.1-0.788-8.925-2.363-11.475c-1.575-2.55-3.838-3.825-6.788-3.825c-2.65,0-4.676,0.975-6.075,2.925c-1.4,1.95-2.1,4.85-2.1,8.7
	c0,5.15,0.762,9,2.288,11.55c1.524,2.551,3.737,3.825,6.637,3.825C209.667,444.595,211.741,443.596,213.191,441.595z"/>
<path id="XMLID_39_" fill="#1D1D1B" d="M261.116,418.645c-0.05-0.949-0.225-1.6-0.525-1.95c-0.3-0.349-0.8-0.525-1.5-0.525h-2.1
	l-0.225-0.525l0.375-3.9c0.6,0.05,1.725,0.101,3.375,0.15c1.65,0.05,3.325,0.075,5.025,0.075c1.65,0,3.199-0.037,4.65-0.112
	c1.449-0.075,2.424-0.137,2.925-0.188l-0.3,4.275c-1.35,0.201-2.313,0.576-2.888,1.125c-0.575,0.551-0.888,1.4-0.938,2.55
	l-0.9,30.524l-7.425,0.75c-3.8-5.599-7.363-10.712-10.688-15.337c-3.326-4.624-5.438-7.563-6.337-8.813h-0.675v15.975
	c0,1.05,0.162,1.775,0.487,2.175c0.325,0.401,0.887,0.601,1.688,0.601c0.45,0,0.938-0.024,1.462-0.075
	c0.525-0.049,0.887-0.075,1.088-0.075l0.375,0.375l-0.675,4.05c-0.6,0-1.725-0.037-3.375-0.112s-3.275-0.112-4.875-0.112
	c-1.451,0-3.013,0.063-4.688,0.188c-1.676,0.124-2.763,0.212-3.262,0.263l0.525-4.275c1.249-0.149,2.149-0.499,2.7-1.05
	c0.55-0.55,0.85-1.425,0.9-2.625l0.825-22.35c0-1.249-0.326-2.112-0.975-2.587c-0.65-0.475-1.976-0.837-3.975-1.087l-0.525-0.6
	l0.45-3.75c0.45,0.05,1.474,0.112,3.075,0.188c1.6,0.075,3.075,0.112,4.425,0.112c1.45,0,2.775-0.024,3.975-0.075
	c1.2-0.049,1.999-0.1,2.4-0.15c3.1,4.85,6.237,9.513,9.413,13.987c3.174,4.476,5.237,7.338,6.188,8.588h0.675L261.116,418.645z"/>
<path id="XMLID_41_" fill="#1D1D1B" d="M294.715,449.545l0.3-3.9c1.449-0.149,2.475-0.287,3.075-0.412
	c0.601-0.124,1.012-0.312,1.237-0.563c0.225-0.25,0.338-0.625,0.338-1.125c0-0.55-0.102-1.125-0.301-1.725l-1.049-3.9
	c-1.05-0.049-2.876-0.075-5.475-0.075c-1.151,0-3.05,0.126-5.7,0.375l-1.35,3.9c-0.201,0.75-0.3,1.301-0.3,1.649
	c0,0.65,0.188,1.088,0.563,1.313c0.375,0.226,1.088,0.338,2.138,0.338h2.325l0.375,0.525l-0.45,3.899
	c-0.6-0.05-1.863-0.112-3.788-0.188c-1.925-0.075-3.712-0.112-5.362-0.112c-1.751,0-3.337,0.024-4.763,0.075
	c-1.425,0.049-2.362,0.075-2.813,0.075l0.45-4.2c0.9-0.15,1.637-0.513,2.212-1.088c0.574-0.574,1.112-1.437,1.612-2.587l10.8-29.55
	l11.025-0.975l0.75,0.45c0.6,2.25,1.875,6.851,3.824,13.8c1.951,6.95,3.551,12.275,4.801,15.975
	c0.398,1.351,0.938,2.325,1.611,2.926c0.676,0.6,1.662,0.95,2.963,1.05l0.301,0.45l-0.451,3.75c-0.551,0-1.588-0.026-3.111-0.075
	c-1.525-0.051-3.088-0.075-4.688-0.075c-2.25,0-4.451,0.063-6.601,0.188c-2.15,0.124-3.524,0.212-4.125,0.263L294.715,449.545z
	 M292.84,432.595c1.65,0,3.1-0.075,4.35-0.225l-3.375-12.15h-0.9l-4.125,12.375H292.84z"/>
<path id="XMLID_44_" fill="#1D1D1B" d="M331.651,449.808c-2.075-0.176-3.862-0.263-5.362-0.263c-1.35,0-2.9,0.087-4.649,0.263
	c-1.751,0.175-2.9,0.287-3.45,0.337l0.45-4.425c1.8-0.249,2.974-0.75,3.524-1.5c0.55-0.75,0.825-2.175,0.825-4.274v-6.825h-6.9
	l-0.524-0.375l0.675-3.976h6.75v-9.45c0-1.249-0.125-2.087-0.375-2.512c-0.251-0.424-0.75-0.638-1.5-0.638
	c-0.45,0-0.851,0.026-1.2,0.075c-0.351,0.05-0.6,0.075-0.75,0.075l-0.45-0.6l0.525-3.9c0.6,0,1.725,0.026,3.375,0.075
	c1.65,0.05,3.25,0.075,4.8,0.075c1.699,0,3.574-0.037,5.625-0.112c2.05-0.075,3.475-0.137,4.275-0.188
	c6.249,0,11.124,1.538,14.625,4.612c3.499,3.075,5.25,7.388,5.25,12.938c0,4.101-0.9,7.751-2.7,10.95
	c-1.8,3.2-4.325,5.676-7.575,7.425c-3.251,1.751-6.975,2.625-11.175,2.625C335.089,450.119,333.726,449.982,331.651,449.808z
	 M339.114,428.695l0.45,0.449l-0.45,3.976h-7.275l-0.074,7.649c0,1.551,0.312,2.576,0.938,3.075c0.624,0.501,1.837,0.75,3.637,0.75
	c6.85,0,10.275-4.5,10.275-13.5c0-4.849-1.001-8.362-3-10.537c-2-2.175-5.15-3.263-9.45-3.263c-0.65,0-1.087,0.112-1.313,0.337
	c-0.225,0.225-0.337,0.613-0.337,1.163l-0.525,9.975L339.114,428.695z"/>
<path id="XMLID_47_" fill="#1D1D1B" d="M362.664,445.87c1.8-0.35,2.974-0.837,3.524-1.463c0.55-0.624,0.825-1.763,0.825-3.412
	l0.075-21.825c0-1.2-0.15-1.999-0.45-2.4c-0.3-0.4-0.9-0.6-1.8-0.6h-2.025l-0.3-0.6l0.375-3.675l8.925,0.075
	c1.1,0,2.725-0.049,4.875-0.15c2.149-0.1,3.574-0.174,4.275-0.225l-0.375,4.275c-1.551,0.2-2.563,0.5-3.038,0.9
	c-0.476,0.401-0.763,1.151-0.862,2.25c-0.5,7.35-0.75,14.826-0.75,22.425c0,1.601,0.15,2.662,0.45,3.188
	c0.3,0.524,0.925,0.787,1.875,0.787c0.649,0,1.188-0.024,1.612-0.075c0.425-0.049,0.713-0.075,0.862-0.075l0.375,0.45l-0.524,3.976
	c-0.701,0-2.014-0.026-3.938-0.075c-1.926-0.051-3.763-0.075-5.513-0.075c-1.451,0-3.15,0.063-5.1,0.188
	c-1.95,0.124-3.226,0.212-3.825,0.263L362.664,445.87z"/>
<path id="XMLID_49_" fill="#1D1D1B" d="M410.737,424.795h-0.6c-0.101,1.8-0.275,4.775-0.525,8.925
	c-0.251,4.151-0.425,7.4-0.524,9.75c0,0.65,0.161,1.125,0.487,1.425c0.324,0.301,0.837,0.45,1.537,0.45h1.95l0.375,0.3l-0.6,4.125
	c-0.601,0-1.701-0.037-3.301-0.112c-1.601-0.075-3.074-0.112-4.425-0.112c-1.05,0-2.263,0.063-3.638,0.188
	c-1.375,0.124-2.287,0.212-2.737,0.263l0.375-4.275c1.2-0.1,2.087-0.462,2.663-1.087c0.574-0.625,0.911-1.638,1.012-3.038
	c0.35-2.649,0.837-6.925,1.463-12.825c0.625-5.898,0.938-9.225,0.938-9.975c0-1.05-0.275-1.737-0.825-2.063
	c-0.551-0.325-1.775-0.563-3.675-0.712l-0.375-0.45l0.6-3.9c0.649,0.05,1.787,0.112,3.413,0.188
	c1.624,0.075,3.188,0.112,4.688,0.112c1.549,0,3.037-0.024,4.462-0.075c1.426-0.049,2.388-0.1,2.888-0.15
	c1.399,4.95,2.813,9.637,4.237,14.063c1.426,4.425,2.363,7.263,2.813,8.513h0.601c0.45-1.25,1.425-4.075,2.925-8.476
	c1.5-4.399,3.024-9.024,4.575-13.875c0.649-0.049,1.262-0.062,1.837-0.037c0.574,0.025,1.088,0.037,1.538,0.037
	c0.55,0.051,1.449,0.075,2.7,0.075c0.999,0,1.749-0.024,2.25-0.075c1.35-0.049,2.611-0.112,3.787-0.188
	c1.174-0.075,1.962-0.137,2.362-0.188l0.3,0.225l-0.449,4.05c-1.701,0.101-2.851,0.363-3.45,0.787c-0.601,0.426-0.9,1.188-0.9,2.288
	c0,1.4,0.162,4.438,0.487,9.113c0.325,4.676,0.638,8.688,0.938,12.037c0.25,2.051,0.574,3.438,0.976,4.163
	c0.399,0.725,1.074,1.087,2.024,1.087l1.726-0.075l0.3,0.375l-0.525,4.051c-0.449,0-1.287-0.026-2.512-0.075
	c-1.227-0.051-2.539-0.075-3.938-0.075c-1.451,0.049-3.163,0.112-5.138,0.188c-1.976,0.075-3.438,0.162-4.388,0.263l0.45-4.275
	c1.249-0.149,2.138-0.437,2.662-0.862c0.525-0.424,0.788-1.112,0.788-2.063c0-0.949-0.15-3.774-0.45-8.475
	c-0.3-4.699-0.501-7.875-0.601-9.525h-0.6c-0.9,2.201-2.188,5.638-3.862,10.313c-1.676,4.676-3.363,9.588-5.063,14.737l-5.101,0.525
	C415.563,437.67,412.587,429.145,410.737,424.795z"/>
<path id="XMLID_51_" fill="#1D1D1B" d="M452.962,445.795c1.699-0.199,2.85-0.662,3.449-1.388c0.601-0.724,0.9-1.962,0.9-3.712
	l0.075-21.375c0-1.249-0.126-2.087-0.375-2.512c-0.251-0.424-0.776-0.638-1.575-0.638l-1.8,0.075l-0.45-0.6l0.525-3.825
	c0.799,0,2.336,0.026,4.612,0.075c2.274,0.05,4.712,0.075,7.313,0.075c8.85,0,15.149-0.225,18.899-0.675l0.525,0.675
	c-0.15,0.65-0.388,2.063-0.713,4.238c-0.325,2.175-0.563,4.413-0.712,6.712l-6.226,0.375c0-0.149,0.025-0.462,0.075-0.938
	c0.05-0.475,0.075-0.938,0.075-1.388c0-1.099-0.176-1.875-0.525-2.325c-0.35-0.45-1.025-0.762-2.024-0.938
	c-1.001-0.175-2.651-0.263-4.95-0.263c-1.35,0-2.188,0.101-2.513,0.3c-0.325,0.2-0.513,0.701-0.563,1.5l-0.375,8.475h5.55
	c0.9,0,2.176-0.062,3.825-0.188c1.65-0.124,2.749-0.212,3.3-0.263l0.601,0.676l-0.9,5.399c-0.551,0-1.588-0.024-3.112-0.075
	c-1.525-0.049-3.139-0.074-4.838-0.074c-1.35,0-2.9,0.125-4.649,0.375c-0.101,2.399-0.15,4.85-0.15,7.35
	c0,1.101,0.075,1.875,0.226,2.325c0.149,0.45,0.475,0.763,0.975,0.938c0.499,0.176,1.35,0.263,2.55,0.263
	c2.5,0,4.324-0.162,5.476-0.488c1.149-0.324,1.975-0.924,2.475-1.8c0.499-0.874,0.9-2.312,1.2-4.313l5.7-0.45l0.6,0.676
	c-0.15,0.6-0.412,2-0.787,4.199c-0.375,2.201-0.688,4.526-0.938,6.976l-0.676,0.675c-1.25-0.051-3.963-0.125-8.137-0.225
	c-4.176-0.102-7.938-0.15-11.288-0.15c-2.351,0-4.625,0.087-6.825,0.263c-2.2,0.175-3.625,0.287-4.274,0.337L452.962,445.795z"/>
</svg>
